<svg id="visual" viewBox="0 0 900 600" width="900" height="600" xmlns="http://www.w3.org/2000/svg" xmlns:xlink="http://www.w3.org/1999/xlink" version="1.1"><path d="M0 442L16.7 436.5C33.3 431 66.7 420 100 409.3C133.3 398.7 166.7 388.3 200 406.7C233.3 425 266.7 472 300 494.5C333.3 517 366.7 515 400 499.8C433.3 484.7 466.7 456.3 500 456.8C533.3 457.3 566.7 486.7 600 479C633.3 471.3 666.7 426.7 700 424C733.3 421.3 766.7 460.7 800 462.3C833.3 464 866.7 428 883.3 410L900 392L900 601L883.3 601C866.7 601 833.3 601 800 601C766.7 601 733.3 601 700 601C666.7 601 633.3 601 600 601C566.7 601 533.3 601 500 601C466.7 601 433.3 601 400 601C366.7 601 333.3 601 300 601C266.7 601 233.3 601 200 601C166.7 601 133.3 601 100 601C66.7 601 33.3 601 16.7 601L0 601Z" fill="#ffa500" stroke-linecap="round" stroke-linejoin="miter"></path></svg>